<svg width="342" height="187" viewBox="0 0 342 187" fill="none" xmlns="http://www.w3.org/2000/svg">
<rect x="190.606" y="16.5806" width="31.8509" height="128.996" rx="8.49356" fill="url(#paint0_linear_885_3466)" fill-opacity="0.6"/>
<path d="M18.4883 29.8954L15.2522 20.9771H16.3861L19.1508 28.5895L21.9218 20.9771H23.0493L19.8133 29.8954H18.4883ZM23.7097 23.5252H24.7799V29.8954H23.7097V23.5252ZM24.2576 22.4869C24.0877 22.4869 23.9454 22.4317 23.8308 22.3213C23.7161 22.2108 23.6588 22.0728 23.6588 21.9072C23.6588 21.7416 23.7161 21.6035 23.8308 21.4931C23.9454 21.3827 24.0856 21.3275 24.2512 21.3275C24.4168 21.3275 24.557 21.3827 24.6716 21.4931C24.7863 21.6035 24.8436 21.7416 24.8436 21.9072C24.8436 22.0728 24.7863 22.2108 24.6716 22.3213C24.5612 22.4317 24.4232 22.4869 24.2576 22.4869ZM28.1907 30.0164C27.8468 30.0037 27.5113 29.94 27.1843 29.8253C26.8615 29.7064 26.577 29.5471 26.3307 29.3476C26.0886 29.1437 25.9123 28.9101 25.8019 28.6468L26.7192 28.2519C26.7829 28.3963 26.8976 28.5322 27.0632 28.6596C27.2289 28.787 27.42 28.8889 27.6365 28.9653C27.8531 29.0418 28.0718 29.08 28.2927 29.08C28.5262 29.08 28.745 29.0439 28.9488 28.9717C29.1526 28.8995 29.3183 28.7933 29.4457 28.6532C29.5773 28.5088 29.6431 28.3368 29.6431 28.1372C29.6431 27.9249 29.5709 27.7593 29.4266 27.6403C29.2864 27.5172 29.1081 27.4216 28.8915 27.3537C28.6791 27.2815 28.4625 27.2135 28.2417 27.1498C27.8043 27.0394 27.4136 26.9078 27.0696 26.7549C26.7256 26.5978 26.4538 26.4003 26.2542 26.1625C26.0589 25.9204 25.9612 25.6125 25.9612 25.2388C25.9612 24.8438 26.0695 24.502 26.2861 24.2132C26.5069 23.9244 26.7957 23.7015 27.1524 23.5443C27.5091 23.3872 27.8913 23.3086 28.299 23.3086C28.8129 23.3086 29.2822 23.419 29.7068 23.6399C30.1315 23.8607 30.4479 24.1601 30.656 24.5381L29.796 25.0413C29.7238 24.8884 29.6134 24.7547 29.4648 24.64C29.3161 24.5211 29.1463 24.4277 28.9552 24.3597C28.7641 24.2918 28.5687 24.2557 28.3691 24.2514C28.1228 24.2429 27.8913 24.2748 27.6748 24.347C27.4624 24.4192 27.2904 24.5296 27.1588 24.6782C27.0314 24.8226 26.9677 25.0031 26.9677 25.2197C26.9677 25.432 27.0356 25.5934 27.1715 25.7038C27.3117 25.8142 27.4922 25.9034 27.713 25.9714C27.9381 26.0351 28.1823 26.1094 28.4456 26.1943C28.832 26.3175 29.193 26.4597 29.5285 26.6211C29.864 26.7825 30.1336 26.9842 30.3375 27.2263C30.5456 27.4684 30.6475 27.7677 30.6433 28.1245C30.6433 28.5152 30.5265 28.857 30.2929 29.1501C30.0593 29.4389 29.7557 29.6597 29.382 29.8126C29.0125 29.9655 28.6154 30.0334 28.1907 30.0164ZM31.6476 23.5252H32.7177V29.8954H31.6476V23.5252ZM32.1954 22.4869C32.0255 22.4869 31.8833 22.4317 31.7686 22.3213C31.6539 22.2108 31.5966 22.0728 31.5966 21.9072C31.5966 21.7416 31.6539 21.6035 31.7686 21.4931C31.8833 21.3827 32.0234 21.3275 32.189 21.3275C32.3546 21.3275 32.4948 21.3827 32.6095 21.4931C32.7241 21.6035 32.7814 21.7416 32.7814 21.9072C32.7814 22.0728 32.7241 22.2108 32.6095 22.3213C32.499 22.4317 32.361 22.4869 32.1954 22.4869ZM37.5476 24.5954H36.1016L36.0952 29.8954H35.025L35.0314 24.5954H33.9357V23.5252H35.0314L35.025 21.525H36.0952L36.1016 23.5252H37.5476V24.5954ZM43.6931 30.0164C43.3492 30.0037 43.0137 29.94 42.6867 29.8253C42.3639 29.7064 42.0794 29.5471 41.8331 29.3476C41.591 29.1437 41.4148 28.9101 41.3043 28.6468L42.2216 28.2519C42.2853 28.3963 42.4 28.5322 42.5656 28.6596C42.7313 28.787 42.9224 28.8889 43.1389 28.9653C43.3555 29.0418 43.5742 29.08 43.7951 29.08C44.0286 29.08 44.2474 29.0439 44.4512 28.9717C44.655 28.8995 44.8207 28.7933 44.9481 28.6532C45.0797 28.5088 45.1455 28.3368 45.1455 28.1372C45.1455 27.9249 45.0734 27.7593 44.929 27.6403C44.7888 27.5172 44.6105 27.4216 44.3939 27.3537C44.1815 27.2815 43.9649 27.2135 43.7441 27.1498C43.3067 27.0394 42.916 26.9078 42.572 26.7549C42.228 26.5978 41.9562 26.4003 41.7566 26.1625C41.5613 25.9204 41.4636 25.6125 41.4636 25.2388C41.4636 24.8438 41.5719 24.502 41.7885 24.2132C42.0093 23.9244 42.2981 23.7015 42.6548 23.5443C43.0115 23.3872 43.3938 23.3086 43.8014 23.3086C44.3153 23.3086 44.7846 23.419 45.2092 23.6399C45.6339 23.8607 45.9503 24.1601 46.1584 24.5381L45.2984 25.0413C45.2262 24.8884 45.1158 24.7547 44.9672 24.64C44.8185 24.5211 44.6487 24.4277 44.4576 24.3597C44.2665 24.2918 44.0711 24.2557 43.8715 24.2514C43.6252 24.2429 43.3938 24.2748 43.1772 24.347C42.9648 24.4192 42.7928 24.5296 42.6612 24.6782C42.5338 24.8226 42.4701 25.0031 42.4701 25.2197C42.4701 25.432 42.538 25.5934 42.6739 25.7038C42.8141 25.8142 42.9946 25.9034 43.2154 25.9714C43.4405 26.0351 43.6847 26.1094 43.948 26.1943C44.3344 26.3175 44.6954 26.4597 45.0309 26.6211C45.3664 26.7825 45.636 26.9842 45.8399 27.2263C46.048 27.4684 46.1499 27.7677 46.1457 28.1245C46.1457 28.5152 46.0289 28.857 45.7953 29.1501C45.5617 29.4389 45.2581 29.6597 44.8844 29.8126C44.5149 29.9655 44.1178 30.0334 43.6931 30.0164ZM50.5368 24.5954H49.0908L49.0844 29.8954H48.0142L48.0206 24.5954H46.9249V23.5252H48.0206L48.0142 21.525H49.0844L49.0908 23.5252H50.5368V24.5954ZM56.6386 23.5252H57.7088V29.8954H56.6386L56.594 28.8188C56.3944 29.1883 56.1184 29.4877 55.7659 29.717C55.4177 29.9463 55.0015 30.061 54.5174 30.061C54.0502 30.061 53.6128 29.974 53.2051 29.7998C52.7974 29.6215 52.4364 29.3773 52.1222 29.0673C51.8122 28.753 51.5701 28.392 51.396 27.9843C51.2219 27.5766 51.1348 27.1371 51.1348 26.6657C51.1348 26.2113 51.2197 25.7824 51.3896 25.3789C51.5595 24.9755 51.7952 24.623 52.0967 24.3215C52.4025 24.0157 52.7549 23.7779 53.1541 23.608C53.5533 23.4339 53.9823 23.3469 54.4409 23.3469C54.942 23.3469 55.3816 23.4658 55.7595 23.7036C56.1375 23.9372 56.4433 24.2408 56.6768 24.6145L56.6386 23.5252ZM54.4982 29.0227C54.9187 29.0227 55.2818 28.9207 55.5875 28.7169C55.8976 28.5088 56.1354 28.2285 56.301 27.876C56.4709 27.5236 56.5558 27.135 56.5558 26.7103C56.5558 26.2771 56.4709 25.8864 56.301 25.5382C56.1311 25.1857 55.8912 24.9075 55.5812 24.7037C55.2754 24.4956 54.9144 24.3916 54.4982 24.3916C54.0778 24.3916 53.6956 24.4956 53.3516 24.7037C53.0076 24.9118 52.7337 25.1921 52.5299 25.5446C52.3303 25.8928 52.2305 26.2814 52.2305 26.7103C52.2305 27.1392 52.3345 27.5299 52.5426 27.8824C52.7507 28.2306 53.0267 28.5088 53.3707 28.7169C53.7147 28.9207 54.0906 29.0227 54.4982 29.0227ZM62.2818 24.5954H60.8358L60.8294 29.8954H59.7592L59.7656 24.5954H58.6699V23.5252H59.7656L59.7592 21.525H60.8294L60.8358 23.5252H62.2818V24.5954ZM63.3615 23.5252H64.4317V29.8954H63.3615V23.5252ZM63.9094 22.4869C63.7395 22.4869 63.5972 22.4317 63.4826 22.3213C63.3679 22.2108 63.3106 22.0728 63.3106 21.9072C63.3106 21.7416 63.3679 21.6035 63.4826 21.4931C63.5972 21.3827 63.7374 21.3275 63.903 21.3275C64.0686 21.3275 64.2088 21.3827 64.3234 21.4931C64.4381 21.6035 64.4954 21.7416 64.4954 21.9072C64.4954 22.0728 64.4381 22.2108 64.3234 22.3213C64.213 22.4317 64.075 22.4869 63.9094 22.4869ZM67.8426 30.0164C67.4986 30.0037 67.1631 29.94 66.8361 29.8253C66.5133 29.7064 66.2288 29.5471 65.9825 29.3476C65.7404 29.1437 65.5642 28.9101 65.4537 28.6468L66.371 28.2519C66.4347 28.3963 66.5494 28.5322 66.715 28.6596C66.8807 28.787 67.0718 28.8889 67.2884 28.9653C67.5049 29.0418 67.7236 29.08 67.9445 29.08C68.1781 29.08 68.3968 29.0439 68.6006 28.9717C68.8045 28.8995 68.9701 28.7933 69.0975 28.6532C69.2291 28.5088 69.295 28.3368 69.295 28.1372C69.295 27.9249 69.2228 27.7593 69.0784 27.6403C68.9382 27.5172 68.7599 27.4216 68.5433 27.3537C68.3309 27.2815 68.1144 27.2135 67.8935 27.1498C67.4561 27.0394 67.0654 26.9078 66.7214 26.7549C66.3774 26.5978 66.1056 26.4003 65.906 26.1625C65.7107 25.9204 65.613 25.6125 65.613 25.2388C65.613 24.8438 65.7213 24.502 65.9379 24.2132C66.1587 23.9244 66.4475 23.7015 66.8042 23.5443C67.1609 23.3872 67.5432 23.3086 67.9508 23.3086C68.4647 23.3086 68.934 23.419 69.3587 23.6399C69.7833 23.8607 70.0997 24.1601 70.3078 24.5381L69.4478 25.0413C69.3756 24.8884 69.2652 24.7547 69.1166 24.64C68.968 24.5211 68.7981 24.4277 68.607 24.3597C68.4159 24.2918 68.2205 24.2557 68.0209 24.2514C67.7746 24.2429 67.5432 24.2748 67.3266 24.347C67.1142 24.4192 66.9422 24.5296 66.8106 24.6782C66.6832 24.8226 66.6195 25.0031 66.6195 25.2197C66.6195 25.432 66.6874 25.5934 66.8233 25.7038C66.9635 25.8142 67.144 25.9034 67.3648 25.9714C67.5899 26.0351 67.8341 26.1094 68.0974 26.1943C68.4838 26.3175 68.8448 26.4597 69.1803 26.6211C69.5158 26.7825 69.7855 26.9842 69.9893 27.2263C70.1974 27.4684 70.2993 27.7677 70.2951 28.1245C70.2951 28.5152 70.1783 28.857 69.9447 29.1501C69.7111 29.4389 69.4075 29.6597 69.0338 29.8126C68.6643 29.9655 68.2672 30.0334 67.8426 30.0164ZM74.6862 24.5954H73.2402L73.2338 29.8954H72.1636L72.17 24.5954H71.0743V23.5252H72.17L72.1636 21.525H73.2338L73.2402 23.5252H74.6862V24.5954ZM75.7659 23.5252H76.8361V29.8954H75.7659V23.5252ZM76.3138 22.4869C76.1439 22.4869 76.0016 22.4317 75.887 22.3213C75.7723 22.2108 75.715 22.0728 75.715 21.9072C75.715 21.7416 75.7723 21.6035 75.887 21.4931C76.0016 21.3827 76.1418 21.3275 76.3074 21.3275C76.473 21.3275 76.6132 21.3827 76.7278 21.4931C76.8425 21.6035 76.8998 21.7416 76.8998 21.9072C76.8998 22.0728 76.8425 22.2108 76.7278 22.3213C76.6174 22.4317 76.4794 22.4869 76.3138 22.4869ZM82.6682 28.2137L83.6238 28.7296C83.335 29.1331 82.9676 29.4558 82.5217 29.6979C82.08 29.94 81.6002 30.061 81.0821 30.061C80.496 30.061 79.9609 29.9102 79.4768 29.6087C78.9969 29.3072 78.6126 28.9038 78.3238 28.3984C78.0392 27.8888 77.897 27.3261 77.897 26.7103C77.897 26.2432 77.9798 25.8079 78.1454 25.4044C78.311 24.9967 78.5382 24.64 78.827 24.3342C79.12 24.0242 79.4598 23.7821 79.8462 23.608C80.2327 23.4339 80.6446 23.3469 81.0821 23.3469C81.6002 23.3469 82.08 23.4679 82.5217 23.71C82.9676 23.952 83.335 24.2769 83.6238 24.6846L82.6682 25.2006C82.4644 24.95 82.2223 24.7568 81.942 24.6209C81.6617 24.485 81.3751 24.417 81.0821 24.417C80.6871 24.417 80.3283 24.5232 80.0055 24.7355C79.687 24.9436 79.4343 25.2218 79.2474 25.57C79.0606 25.9183 78.9672 26.2984 78.9672 26.7103C78.9672 27.1222 79.0606 27.5023 79.2474 27.8506C79.4385 28.1946 79.6934 28.4706 80.0119 28.6787C80.3346 28.8868 80.6913 28.9908 81.0821 28.9908C81.3963 28.9908 81.6915 28.9186 81.9675 28.7742C82.2435 28.6298 82.4771 28.443 82.6682 28.2137ZM86.7167 30.0164C86.3727 30.0037 86.0372 29.94 85.7102 29.8253C85.3874 29.7064 85.1029 29.5471 84.8566 29.3476C84.6145 29.1437 84.4383 28.9101 84.3279 28.6468L85.2452 28.2519C85.3089 28.3963 85.4235 28.5322 85.5891 28.6596C85.7548 28.787 85.9459 28.8889 86.1625 28.9653C86.379 29.0418 86.5978 29.08 86.8186 29.08C87.0522 29.08 87.2709 29.0439 87.4747 28.9717C87.6786 28.8995 87.8442 28.7933 87.9716 28.6532C88.1032 28.5088 88.1691 28.3368 88.1691 28.1372C88.1691 27.9249 88.0969 27.7593 87.9525 27.6403C87.8123 27.5172 87.634 27.4216 87.4174 27.3537C87.205 27.2815 86.9885 27.2135 86.7676 27.1498C86.3302 27.0394 85.9395 26.9078 85.5955 26.7549C85.2515 26.5978 84.9797 26.4003 84.7801 26.1625C84.5848 25.9204 84.4871 25.6125 84.4871 25.2388C84.4871 24.8438 84.5954 24.502 84.812 24.2132C85.0328 23.9244 85.3216 23.7015 85.6783 23.5443C86.0351 23.3872 86.4173 23.3086 86.825 23.3086C87.3388 23.3086 87.8081 23.419 88.2328 23.6399C88.6574 23.8607 88.9738 24.1601 89.1819 24.5381L88.322 25.0413C88.2498 24.8884 88.1393 24.7547 87.9907 24.64C87.8421 24.5211 87.6722 24.4277 87.4811 24.3597C87.29 24.2918 87.0946 24.2557 86.895 24.2514C86.6487 24.2429 86.4173 24.2748 86.2007 24.347C85.9883 24.4192 85.8164 24.5296 85.6847 24.6782C85.5573 24.8226 85.4936 25.0031 85.4936 25.2197C85.4936 25.432 85.5615 25.5934 85.6974 25.7038C85.8376 25.8142 86.0181 25.9034 86.2389 25.9714C86.464 26.0351 86.7082 26.1094 86.9715 26.1943C87.3579 26.3175 87.7189 26.4597 88.0544 26.6211C88.3899 26.7825 88.6596 26.9842 88.8634 27.2263C89.0715 27.4684 89.1734 27.7677 89.1692 28.1245C89.1692 28.5152 89.0524 28.857 88.8188 29.1501C88.5853 29.4389 88.2816 29.6597 87.9079 29.8126C87.5384 29.9655 87.1413 30.0334 86.7167 30.0164Z" fill="#1A1A1A"/>
<path d="M15.6345 159.731C15.4364 159.731 15.2424 159.697 15.0527 159.629C14.863 159.564 14.6903 159.465 14.5346 159.332L14.989 158.779C15.0711 158.85 15.166 158.908 15.2736 158.954C15.384 158.996 15.5043 159.017 15.6345 159.017C15.8214 159.017 15.9913 158.968 16.1441 158.869C16.297 158.77 16.4188 158.639 16.5094 158.478C16.6028 158.317 16.6495 158.144 16.6495 157.96V153.675H17.363V157.96C17.363 158.277 17.2851 158.57 17.1294 158.839C16.9737 159.105 16.7656 159.32 16.5051 159.484C16.2447 159.649 15.9545 159.731 15.6345 159.731ZM21.7973 155.374H22.5108V159.62H21.7973L21.7676 158.903C21.6345 159.149 21.4505 159.349 21.2155 159.501C20.9834 159.654 20.7059 159.731 20.3832 159.731C20.0717 159.731 19.7801 159.673 19.5083 159.557C19.2365 159.438 18.9959 159.275 18.7864 159.068C18.5797 158.859 18.4183 158.618 18.3022 158.346C18.1862 158.075 18.1281 157.782 18.1281 157.467C18.1281 157.164 18.1847 156.878 18.298 156.609C18.4112 156.34 18.5684 156.105 18.7694 155.904C18.9732 155.701 19.2082 155.542 19.4744 155.429C19.7405 155.313 20.0264 155.255 20.3322 155.255C20.6663 155.255 20.9593 155.334 21.2113 155.492C21.4633 155.648 21.6671 155.851 21.8228 156.1L21.7973 155.374ZM20.3704 159.039C20.6507 159.039 20.8928 158.971 21.0966 158.835C21.3033 158.696 21.4618 158.509 21.5723 158.274C21.6855 158.039 21.7421 157.78 21.7421 157.497C21.7421 157.208 21.6855 156.948 21.5723 156.716C21.459 156.481 21.2991 156.295 21.0924 156.159C20.8885 156.021 20.6479 155.951 20.3704 155.951C20.0901 155.951 19.8353 156.021 19.606 156.159C19.3767 156.298 19.1941 156.485 19.0582 156.72C18.9251 156.952 18.8586 157.211 18.8586 157.497C18.8586 157.783 18.9279 158.043 19.0667 158.278C19.2054 158.511 19.3894 158.696 19.6187 158.835C19.8481 158.971 20.0986 159.039 20.3704 159.039ZM27.1138 156.979V159.62H26.4003V157.136C26.4003 156.921 26.3479 156.725 26.2432 156.55C26.1384 156.374 25.9983 156.236 25.8228 156.134C25.6472 156.029 25.4519 155.977 25.2367 155.977C25.0244 155.977 24.829 156.029 24.6506 156.134C24.4751 156.236 24.335 156.374 24.2302 156.55C24.1255 156.725 24.0731 156.921 24.0731 157.136V159.62H23.3596V155.374H24.0731V155.904C24.2231 155.706 24.4128 155.549 24.6422 155.433C24.8715 155.314 25.1206 155.255 25.3896 155.255C25.7067 155.255 25.9955 155.333 26.2559 155.488C26.5192 155.641 26.7273 155.848 26.8802 156.108C27.0359 156.369 27.1138 156.659 27.1138 156.979Z" fill="#999999"/>
<path d="M51.7603 159.62V153.675H55.2469V154.388H52.4738V156.078H54.8392V156.792H52.4738V159.62H51.7603ZM57.32 159.731C56.9293 159.731 56.5725 159.63 56.2498 159.429C55.9299 159.228 55.6736 158.959 55.4811 158.622C55.2914 158.283 55.1966 157.907 55.1966 157.497C55.1966 157.185 55.2518 156.895 55.3622 156.626C55.4726 156.354 55.6241 156.117 55.8166 155.913C56.012 155.706 56.2385 155.545 56.4961 155.429C56.7537 155.313 57.0284 155.255 57.32 155.255C57.6399 155.255 57.9329 155.32 58.199 155.45C58.468 155.577 58.6973 155.756 58.887 155.985C59.0795 156.214 59.2225 156.48 59.316 156.783C59.4122 157.086 59.4476 157.41 59.4221 157.756H55.9567C55.9907 157.997 56.07 158.212 56.1946 158.401C56.3191 158.588 56.4777 158.737 56.6702 158.847C56.8656 158.958 57.0821 159.014 57.32 159.017C57.5748 159.017 57.8055 158.952 58.0122 158.822C58.2189 158.689 58.3859 158.508 58.5133 158.278L59.2395 158.448C59.0696 158.825 58.8134 159.133 58.4708 159.374C58.1283 159.612 57.7446 159.731 57.32 159.731ZM55.9355 157.195H58.7044C58.6818 156.958 58.6053 156.741 58.4751 156.546C58.3449 156.347 58.1792 156.189 57.9782 156.07C57.7772 155.951 57.5578 155.892 57.32 155.892C57.0821 155.892 56.8641 155.95 56.666 156.066C56.4678 156.182 56.3036 156.339 56.1733 156.537C56.0459 156.732 55.9667 156.952 55.9355 157.195ZM62.2452 155.255C62.6585 155.255 63.0337 155.355 63.3706 155.556C63.7103 155.757 63.9807 156.027 64.1817 156.367C64.3827 156.704 64.4832 157.079 64.4832 157.493C64.4832 157.801 64.4252 158.091 64.3091 158.363C64.193 158.632 64.0316 158.87 63.825 159.077C63.6211 159.28 63.3833 159.44 63.1115 159.557C62.8425 159.673 62.5538 159.731 62.2452 159.731C61.9167 159.731 61.6308 159.654 61.3873 159.501C61.1467 159.346 60.9541 159.143 60.8098 158.894V159.62H60.0963V153.25H60.8098V156.091C60.9541 155.842 61.1467 155.641 61.3873 155.488C61.6308 155.332 61.9167 155.255 62.2452 155.255ZM62.2367 159.034C62.517 159.034 62.7718 158.965 63.0011 158.826C63.2304 158.687 63.413 158.502 63.5489 158.27C63.6848 158.035 63.7528 157.776 63.7528 157.493C63.7528 157.204 63.6834 156.943 63.5447 156.711C63.406 156.476 63.2219 156.291 62.9926 156.155C62.7633 156.016 62.5113 155.947 62.2367 155.947C61.9592 155.947 61.7171 156.016 61.5105 156.155C61.3066 156.294 61.1481 156.48 61.0348 156.715C60.9244 156.95 60.8692 157.209 60.8692 157.493C60.8692 157.779 60.9244 158.039 61.0348 158.274C61.1481 158.506 61.308 158.692 61.5147 158.83C61.7214 158.966 61.962 159.034 62.2367 159.034Z" fill="#999999"/>
<path d="M88.4683 159.62L89.6192 153.675H90.167L91.7723 157.896L93.3733 153.675H93.9212L95.0763 159.62H94.3501L93.5135 155.306L92.0059 159.297H91.5345L90.0269 155.306L89.1945 159.62H88.4683ZM99.1404 155.373H99.8539V159.62H99.1404L99.1107 158.903C98.9776 159.149 98.7936 159.348 98.5586 159.501C98.3264 159.654 98.049 159.731 97.7262 159.731C97.4148 159.731 97.1232 159.673 96.8514 159.557C96.5796 159.438 96.3389 159.275 96.1294 159.068C95.9228 158.859 95.7614 158.618 95.6453 158.346C95.5292 158.074 95.4712 157.781 95.4712 157.467C95.4712 157.164 95.5278 156.878 95.6411 156.609C95.7543 156.34 95.9114 156.105 96.1124 155.904C96.3163 155.7 96.5513 155.542 96.8174 155.429C97.0835 155.313 97.3695 155.255 97.6753 155.255C98.0093 155.255 98.3024 155.334 98.5543 155.492C98.8063 155.648 99.0102 155.851 99.1659 156.1L99.1404 155.373ZM97.7135 159.038C97.9938 159.038 98.2358 158.97 98.4397 158.835C98.6464 158.696 98.8049 158.509 98.9153 158.274C99.0286 158.039 99.0852 157.78 99.0852 157.497C99.0852 157.208 99.0286 156.948 98.9153 156.715C98.8021 156.48 98.6421 156.295 98.4354 156.159C98.2316 156.02 97.9909 155.951 97.7135 155.951C97.4332 155.951 97.1784 156.02 96.9491 156.159C96.7197 156.298 96.5371 156.485 96.4012 156.72C96.2682 156.952 96.2016 157.211 96.2016 157.497C96.2016 157.783 96.271 158.043 96.4097 158.278C96.5484 158.51 96.7325 158.696 96.9618 158.835C97.1911 158.97 97.4417 159.038 97.7135 159.038ZM100.703 159.62V155.373H101.416V155.904C101.566 155.706 101.756 155.549 101.985 155.433C102.215 155.314 102.464 155.255 102.733 155.255C102.897 155.255 103.055 155.276 103.208 155.318L102.92 156.032C102.803 155.995 102.69 155.977 102.58 155.977C102.367 155.977 102.172 156.029 101.994 156.134C101.818 156.236 101.678 156.374 101.573 156.55C101.469 156.725 101.416 156.921 101.416 157.136V159.62H100.703Z" fill="#999999"/>
<path d="M127.816 153.675H128.678L130.84 159.62H130.084L129.642 158.406H126.852L126.414 159.62H125.654L127.816 153.675ZM127.115 157.692H129.379L128.245 154.588L127.115 157.692ZM132.236 161.744H131.522V155.373H132.236V156.1C132.38 155.851 132.573 155.65 132.813 155.497C133.054 155.341 133.34 155.263 133.671 155.263C133.98 155.263 134.269 155.321 134.538 155.437C134.809 155.553 135.047 155.715 135.251 155.921C135.455 156.125 135.615 156.362 135.731 156.631C135.847 156.899 135.905 157.188 135.905 157.497C135.905 157.805 135.847 158.096 135.731 158.367C135.615 158.639 135.455 158.878 135.251 159.085C135.047 159.289 134.809 159.449 134.538 159.565C134.269 159.681 133.98 159.739 133.671 159.739C133.34 159.739 133.054 159.663 132.813 159.51C132.573 159.354 132.38 159.152 132.236 158.903V161.744ZM133.663 155.955C133.388 155.955 133.147 156.025 132.941 156.163C132.734 156.302 132.574 156.488 132.461 156.72C132.351 156.952 132.295 157.211 132.295 157.497C132.295 157.78 132.351 158.039 132.461 158.274C132.574 158.509 132.733 158.696 132.937 158.835C133.143 158.973 133.385 159.043 133.663 159.043C133.937 159.043 134.189 158.975 134.419 158.839C134.648 158.7 134.832 158.515 134.971 158.283C135.109 158.048 135.179 157.786 135.179 157.497C135.179 157.214 135.111 156.956 134.975 156.724C134.839 156.489 134.657 156.302 134.427 156.163C134.198 156.025 133.943 155.955 133.663 155.955ZM136.615 159.62V155.373H137.329V155.904C137.479 155.706 137.668 155.549 137.898 155.433C138.127 155.314 138.376 155.255 138.645 155.255C138.809 155.255 138.968 155.276 139.121 155.318L138.832 156.032C138.716 155.995 138.603 155.977 138.492 155.977C138.28 155.977 138.085 156.029 137.906 156.134C137.731 156.236 137.591 156.374 137.486 156.55C137.381 156.725 137.329 156.921 137.329 157.136V159.62H136.615Z" fill="#999999"/>
<path d="M161.391 159.62L162.542 153.675H163.09L164.695 157.896L166.296 153.675H166.844L167.999 159.62H167.273L166.437 155.306L164.929 159.297H164.458L162.95 155.306L162.118 159.62H161.391ZM172.064 155.373H172.777V159.62H172.064L172.034 158.903C171.901 159.149 171.717 159.348 171.482 159.501C171.25 159.654 170.972 159.731 170.649 159.731C170.338 159.731 170.046 159.673 169.775 159.557C169.503 159.438 169.262 159.275 169.053 159.068C168.846 158.859 168.685 158.618 168.568 158.346C168.452 158.074 168.394 157.781 168.394 157.467C168.394 157.164 168.451 156.878 168.564 156.609C168.677 156.34 168.835 156.105 169.036 155.904C169.239 155.7 169.474 155.542 169.741 155.429C170.007 155.313 170.293 155.255 170.598 155.255C170.932 155.255 171.226 155.334 171.477 155.492C171.729 155.648 171.933 155.851 172.089 156.1L172.064 155.373ZM170.637 159.038C170.917 159.038 171.159 158.97 171.363 158.835C171.569 158.696 171.728 158.509 171.838 158.274C171.952 158.039 172.008 157.78 172.008 157.497C172.008 157.208 171.952 156.948 171.838 156.715C171.725 156.48 171.565 156.295 171.359 156.159C171.155 156.02 170.914 155.951 170.637 155.951C170.356 155.951 170.102 156.02 169.872 156.159C169.643 156.298 169.46 156.485 169.324 156.72C169.191 156.952 169.125 157.211 169.125 157.497C169.125 157.783 169.194 158.043 169.333 158.278C169.472 158.51 169.656 158.696 169.885 158.835C170.114 158.97 170.365 159.038 170.637 159.038ZM176.402 155.373H177.158L174.835 161.744H174.079L174.848 159.62L173.323 155.373H174.105L175.205 158.639L176.402 155.373Z" fill="#999999"/>
<path d="M201.436 159.731C201.237 159.731 201.043 159.697 200.854 159.629C200.664 159.564 200.491 159.465 200.336 159.331L200.79 158.779C200.872 158.85 200.967 158.908 201.075 158.953C201.185 158.996 201.305 159.017 201.436 159.017C201.622 159.017 201.792 158.968 201.945 158.869C202.098 158.769 202.22 158.639 202.31 158.478C202.404 158.316 202.451 158.144 202.451 157.96V153.675H203.164V157.96C203.164 158.277 203.086 158.57 202.93 158.839C202.775 159.105 202.567 159.32 202.306 159.484C202.046 159.649 201.755 159.731 201.436 159.731ZM204.014 158.006V155.373H204.728V157.849C204.728 158.065 204.78 158.26 204.885 158.435C204.989 158.611 205.13 158.751 205.305 158.856C205.483 158.958 205.679 159.009 205.891 159.009C206.106 159.009 206.3 158.958 206.473 158.856C206.649 158.751 206.789 158.611 206.893 158.435C206.998 158.26 207.051 158.065 207.051 157.849V155.373H207.764L207.768 159.62H207.055L207.051 159.081C206.9 159.279 206.711 159.438 206.481 159.557C206.252 159.673 206.004 159.731 205.738 159.731C205.421 159.731 205.131 159.654 204.868 159.501C204.607 159.346 204.399 159.138 204.243 158.877C204.091 158.617 204.014 158.326 204.014 158.006ZM212.376 156.979V159.62H211.662V157.136C211.662 156.921 211.61 156.725 211.505 156.55C211.4 156.374 211.26 156.236 211.085 156.134C210.909 156.029 210.714 155.977 210.499 155.977C210.286 155.977 210.091 156.029 209.913 156.134C209.737 156.236 209.597 156.374 209.492 156.55C209.387 156.725 209.335 156.921 209.335 157.136V159.62H208.622V155.373H209.335V155.904C209.485 155.706 209.675 155.549 209.904 155.433C210.133 155.314 210.383 155.255 210.651 155.255C210.969 155.255 211.257 155.332 211.518 155.488C211.781 155.641 211.989 155.848 212.142 156.108C212.298 156.369 212.376 156.659 212.376 156.979Z" fill="#1A1A1A"/>
<path d="M240.188 159.731C239.99 159.731 239.796 159.697 239.606 159.629C239.417 159.564 239.244 159.465 239.088 159.331L239.542 158.779C239.625 158.85 239.719 158.908 239.827 158.953C239.937 158.996 240.058 159.017 240.188 159.017C240.375 159.017 240.545 158.968 240.698 158.869C240.85 158.769 240.972 158.639 241.063 158.478C241.156 158.316 241.203 158.144 241.203 157.96V153.675H241.916V157.96C241.916 158.277 241.839 158.57 241.683 158.839C241.527 159.105 241.319 159.32 241.059 159.484C240.798 159.649 240.508 159.731 240.188 159.731ZM242.767 158.006V155.373H243.48V157.849C243.48 158.065 243.532 158.26 243.637 158.435C243.742 158.611 243.882 158.751 244.058 158.856C244.236 158.958 244.431 159.009 244.644 159.009C244.859 159.009 245.053 158.958 245.225 158.856C245.401 158.751 245.541 158.611 245.646 158.435C245.751 158.26 245.803 158.065 245.803 157.849V155.373H246.516L246.521 159.62H245.807L245.803 159.081C245.653 159.279 245.463 159.438 245.234 159.557C245.005 159.673 244.757 159.731 244.491 159.731C244.174 159.731 243.883 159.654 243.62 159.501C243.36 159.346 243.152 159.138 242.996 158.877C242.843 158.617 242.767 158.326 242.767 158.006ZM247.424 159.62V153.25H248.137V159.62H247.424Z" fill="#999999"/>
<path d="M275.918 153.675H276.78L278.942 159.62H278.186L277.744 158.406H274.954L274.517 159.62H273.757L275.918 153.675ZM275.218 157.692H277.481L276.347 154.588L275.218 157.692ZM279.331 158.006V155.373H280.044V157.849C280.044 158.065 280.096 158.26 280.201 158.435C280.306 158.611 280.446 158.751 280.622 158.856C280.8 158.958 280.995 159.009 281.208 159.009C281.423 159.009 281.617 158.958 281.79 158.856C281.965 158.751 282.105 158.611 282.21 158.435C282.315 158.26 282.367 158.065 282.367 157.849V155.373H283.081L283.085 159.62H282.371L282.367 159.081C282.217 159.279 282.027 159.438 281.798 159.557C281.569 159.673 281.321 159.731 281.055 159.731C280.738 159.731 280.448 159.654 280.184 159.501C279.924 159.346 279.716 159.138 279.56 158.877C279.407 158.617 279.331 158.326 279.331 158.006ZM287.213 155.373H287.927V159.756C287.927 160.036 287.866 160.297 287.744 160.538C287.625 160.781 287.464 160.992 287.26 161.17C287.056 161.352 286.824 161.492 286.564 161.591C286.303 161.693 286.031 161.744 285.748 161.744C285.454 161.744 285.169 161.677 284.895 161.544C284.62 161.414 284.379 161.238 284.173 161.017C283.969 160.799 283.822 160.555 283.731 160.283L284.385 159.985C284.439 160.181 284.535 160.356 284.674 160.512C284.815 160.671 284.98 160.795 285.166 160.886C285.356 160.979 285.55 161.026 285.748 161.026C285.935 161.026 286.115 160.993 286.288 160.928C286.463 160.863 286.62 160.773 286.759 160.656C286.9 160.543 287.011 160.409 287.09 160.253C287.172 160.1 287.213 159.935 287.213 159.756V158.911C287.069 159.155 286.878 159.353 286.64 159.506C286.405 159.656 286.13 159.731 285.816 159.731C285.516 159.731 285.234 159.673 284.971 159.557C284.708 159.44 284.477 159.28 284.279 159.077C284.081 158.87 283.925 158.632 283.812 158.363C283.698 158.094 283.642 157.805 283.642 157.497C283.642 157.188 283.698 156.899 283.812 156.631C283.925 156.359 284.081 156.121 284.279 155.917C284.477 155.71 284.708 155.549 284.971 155.433C285.234 155.317 285.516 155.259 285.816 155.259C286.13 155.259 286.405 155.334 286.64 155.484C286.878 155.634 287.069 155.832 287.213 156.078V155.373ZM285.82 159.038C286.095 159.038 286.333 158.968 286.534 158.826C286.738 158.685 286.895 158.496 287.005 158.261C287.116 158.026 287.171 157.771 287.171 157.497C287.171 157.214 287.114 156.956 287.001 156.724C286.891 156.489 286.733 156.302 286.53 156.163C286.329 156.022 286.092 155.951 285.82 155.951C285.554 155.951 285.311 156.02 285.09 156.159C284.869 156.298 284.694 156.485 284.563 156.72C284.436 156.952 284.372 157.211 284.372 157.497C284.372 157.783 284.437 158.043 284.568 158.278C284.701 158.51 284.876 158.696 285.094 158.835C285.315 158.97 285.557 159.038 285.82 159.038Z" fill="#999999"/>
<line x1="21.0039" y1="42.6836" x2="21.0039" y2="129.212" stroke="#F2F2F2" stroke-width="0.530847" stroke-dasharray="2.12 2.12"/>
<line x1="58.1634" y1="42.6836" x2="58.1634" y2="129.212" stroke="#F2F2F2" stroke-width="0.530847" stroke-dasharray="2.12 2.12"/>
<line x1="95.3226" y1="42.6836" x2="95.3226" y2="129.212" stroke="#F2F2F2" stroke-width="0.530847" stroke-dasharray="2.12 2.12"/>
<line x1="132.482" y1="42.6836" x2="132.482" y2="129.212" stroke="#F2F2F2" stroke-width="0.530847" stroke-dasharray="2.12 2.12"/>
<line x1="169.641" y1="42.6836" x2="169.641" y2="129.212" stroke="#F2F2F2" stroke-width="0.530847" stroke-dasharray="2.12 2.12"/>
<line x1="206.801" y1="42.6836" x2="206.801" y2="129.212" stroke="#F2F2F2" stroke-width="0.530847" stroke-dasharray="2.12 2.12"/>
<line x1="243.96" y1="42.6836" x2="243.96" y2="129.212" stroke="#F2F2F2" stroke-width="0.530847" stroke-dasharray="2.12 2.12"/>
<line x1="281.119" y1="42.6836" x2="281.119" y2="129.212" stroke="#F2F2F2" stroke-width="0.530847" stroke-dasharray="2.12 2.12"/>
<ellipse cx="57.8987" cy="115.41" rx="3.18509" ry="3.18508" fill="#FFDB5B"/>
<path d="M57.8987 120.718C60.8305 120.718 63.2072 118.341 63.2072 115.41C63.2072 112.478 60.8305 110.101 57.8987 110.101C54.9669 110.101 52.5902 112.478 52.5902 115.41C52.5902 118.341 54.9669 120.718 57.8987 120.718Z" stroke="#FFDB5B" stroke-opacity="0.25" stroke-width="4.24678"/>
<ellipse cx="78.6021" cy="85.682" rx="3.18509" ry="3.18508" fill="#FFDB5B"/>
<path d="M78.6021 89.9288C80.9475 89.9288 82.8489 88.0275 82.8489 85.682C82.8489 83.3366 80.9475 81.4353 78.6021 81.4353C76.2566 81.4353 74.3553 83.3366 74.3553 85.682C74.3553 88.0275 76.2566 89.9288 78.6021 89.9288Z" stroke="#FFDB5B" stroke-opacity="0.25" stroke-width="2.12339"/>
<ellipse cx="111.512" cy="83.5586" rx="3.18509" ry="3.18508" fill="#FFDB5B"/>
<path d="M111.512 87.8054C113.857 87.8054 115.759 85.904 115.759 83.5586C115.759 81.2132 113.857 79.3118 111.512 79.3118C109.166 79.3118 107.265 81.2132 107.265 83.5586C107.265 85.904 109.166 87.8054 111.512 87.8054Z" stroke="#FFDB5B" stroke-opacity="0.25" stroke-width="2.12339"/>
<ellipse cx="132.75" cy="58.078" rx="3.18509" ry="3.18508" fill="#FFDB5B"/>
<path d="M132.75 63.3865C135.682 63.3865 138.058 61.0098 138.058 58.078C138.058 55.1462 135.682 52.7696 132.75 52.7696C129.818 52.7696 127.441 55.1462 127.441 58.078C127.441 61.0098 129.818 63.3865 132.75 63.3865Z" stroke="#FFDB5B" stroke-opacity="0.25" stroke-width="4.24678"/>
<ellipse cx="169.375" cy="72.411" rx="3.18509" ry="3.18508" fill="#FFDB5B"/>
<path d="M169.375 76.6578C171.721 76.6578 173.622 74.7565 173.622 72.411C173.622 70.0656 171.721 68.1643 169.375 68.1643C167.03 68.1643 165.128 70.0656 165.128 72.411C165.128 74.7565 167.03 76.6578 169.375 76.6578Z" stroke="#FFDB5B" stroke-opacity="0.25" stroke-width="2.12339"/>
<ellipse cx="243.425" cy="57.0164" rx="3.18509" ry="3.18508" fill="#FFDB5B"/>
<path d="M243.425 61.2632C245.771 61.2632 247.672 59.3618 247.672 57.0164C247.672 54.6709 245.771 52.7696 243.425 52.7696C241.08 52.7696 239.178 54.6709 239.178 57.0164C239.178 59.3618 241.08 61.2632 243.425 61.2632Z" stroke="#FFDB5B" stroke-opacity="0.25" stroke-width="2.12339"/>
<ellipse cx="207.067" cy="56.4855" rx="3.18509" ry="3.18508" fill="#FFDB5B"/>
<path d="M207.067 61.794C209.998 61.794 212.375 59.4173 212.375 56.4855C212.375 53.5537 209.998 51.177 207.067 51.177C204.135 51.177 201.758 53.5537 201.758 56.4855C201.758 59.4173 204.135 61.794 207.067 61.794Z" stroke="#FFDB5B" stroke-opacity="0.25" stroke-width="4.24678"/>
<ellipse cx="21.2693" cy="121.78" rx="3.18509" ry="3.18508" fill="#FFDB5B"/>
<ellipse cx="281.383" cy="42.6836" rx="3.18509" ry="3.18508" fill="#FFDB5B"/>
<path d="M21.2659 121.78L58.0719 115.669L78.6579 84.4382H111.797L132.58 57.5268L169.493 73.4522L206.879 56.1393L244.216 57.201L281.381 42.6836" stroke="#FFDB5B" stroke-width="1.59254"/>
<g filter="url(#filter0_b_885_3466)">
<rect x="198.45" y="91.0775" width="123.305" height="74.6321" rx="12.8686" fill="#FE4A23"/>
<path d="M214.626 115.946V107.389H217.633C218.09 107.389 218.501 107.501 218.868 107.725C219.239 107.949 219.532 108.253 219.748 108.636C219.968 109.015 220.078 109.438 220.078 109.907C220.078 110.319 219.997 110.694 219.834 111.032C219.671 111.37 219.447 111.653 219.161 111.881C218.88 112.106 218.56 112.26 218.202 112.346L220.28 115.946H219.094L217.053 112.432H215.653V115.946H214.626ZM215.653 111.405H217.529C217.806 111.405 218.061 111.337 218.293 111.203C218.526 111.064 218.709 110.879 218.844 110.647C218.982 110.41 219.051 110.145 219.051 109.852C219.051 109.555 218.982 109.29 218.844 109.057C218.709 108.821 218.526 108.636 218.293 108.501C218.061 108.363 217.806 108.293 217.529 108.293H215.653V111.405ZM226.202 109.834H227.229V115.946H226.202L226.159 114.913C225.968 115.268 225.703 115.555 225.365 115.775C225.031 115.995 224.631 116.105 224.167 116.105C223.718 116.105 223.299 116.022 222.907 115.855C222.516 115.683 222.17 115.449 221.868 115.152C221.571 114.85 221.339 114.504 221.171 114.113C221.004 113.721 220.921 113.3 220.921 112.847C220.921 112.411 221.002 112 221.165 111.612C221.328 111.225 221.555 110.887 221.844 110.598C222.137 110.304 222.476 110.076 222.859 109.913C223.242 109.746 223.653 109.663 224.093 109.663C224.574 109.663 224.996 109.777 225.359 110.005C225.721 110.229 226.015 110.52 226.239 110.879L226.202 109.834ZM224.148 115.109C224.552 115.109 224.9 115.011 225.194 114.815C225.491 114.616 225.719 114.347 225.878 114.009C226.041 113.67 226.123 113.297 226.123 112.89C226.123 112.474 226.041 112.099 225.878 111.765C225.715 111.427 225.485 111.16 225.187 110.965C224.894 110.765 224.548 110.665 224.148 110.665C223.745 110.665 223.378 110.765 223.048 110.965C222.718 111.164 222.455 111.433 222.26 111.771C222.068 112.106 221.972 112.478 221.972 112.89C221.972 113.302 222.072 113.676 222.272 114.015C222.471 114.349 222.736 114.616 223.066 114.815C223.396 115.011 223.757 115.109 224.148 115.109ZM231.617 110.861H230.23L230.223 115.946H229.197L229.203 110.861H228.151V109.834H229.203L229.197 107.914H230.223L230.23 109.834H231.617V110.861ZM235.247 116.105C234.685 116.105 234.171 115.961 233.707 115.671C233.246 115.382 232.878 114.995 232.601 114.51C232.328 114.021 232.191 113.481 232.191 112.89C232.191 112.442 232.27 112.024 232.429 111.637C232.588 111.246 232.806 110.903 233.083 110.61C233.365 110.313 233.691 110.08 234.061 109.913C234.432 109.746 234.828 109.663 235.247 109.663C235.708 109.663 236.13 109.756 236.513 109.944C236.9 110.127 237.23 110.384 237.503 110.714C237.78 111.044 237.986 111.427 238.12 111.863C238.259 112.299 238.31 112.766 238.273 113.263H233.285C233.334 113.609 233.448 113.919 233.627 114.192C233.807 114.461 234.035 114.675 234.312 114.834C234.593 114.993 234.905 115.074 235.247 115.078C235.614 115.078 235.946 114.985 236.244 114.797C236.541 114.606 236.782 114.345 236.965 114.015L238.01 114.259C237.766 114.801 237.397 115.245 236.904 115.592C236.411 115.934 235.859 116.105 235.247 116.105ZM233.255 112.456H237.24C237.207 112.114 237.097 111.802 236.91 111.521C236.722 111.236 236.484 111.007 236.195 110.836C235.905 110.665 235.59 110.579 235.247 110.579C234.905 110.579 234.591 110.663 234.306 110.83C234.021 110.997 233.784 111.223 233.597 111.509C233.414 111.79 233.299 112.106 233.255 112.456Z" fill="white"/>
<path d="M218.486 149.916V146.043H214.613V144.781H218.486V140.908H219.748V144.781H223.621V146.043H219.748V149.916H218.486ZM234.86 151.151C233.762 151.151 232.763 150.885 231.862 150.354C230.97 149.822 230.262 149.11 229.739 148.217C229.215 147.317 228.954 146.33 228.954 145.258H230.755C230.755 146.004 230.94 146.69 231.309 147.317C231.678 147.934 232.171 148.427 232.789 148.796C233.415 149.165 234.105 149.35 234.86 149.35C235.607 149.35 236.289 149.165 236.906 148.796C237.524 148.427 238.017 147.934 238.386 147.317C238.764 146.69 238.953 146.004 238.953 145.258C238.953 144.503 238.772 143.816 238.412 143.199C238.06 142.572 237.559 142.075 236.906 141.706C236.263 141.328 235.495 141.14 234.603 141.14H230.228L231.926 132.801H240.355V134.602H233.38L232.441 139.338L234.539 139.351C235.765 139.368 236.842 139.63 237.769 140.136C238.704 140.642 239.433 141.337 239.956 142.221C240.488 143.096 240.754 144.108 240.754 145.258C240.754 146.064 240.6 146.823 240.291 147.535C239.991 148.247 239.566 148.878 239.017 149.427C238.476 149.967 237.85 150.392 237.138 150.701C236.435 151.001 235.675 151.151 234.86 151.151ZM249.073 151.151C248.018 151.151 247.052 150.911 246.177 150.431C245.311 149.95 244.62 149.307 244.105 148.5C243.591 147.694 243.333 146.797 243.333 145.811C243.333 144.85 243.599 143.975 244.131 143.186C244.663 142.388 245.354 141.77 246.203 141.333C245.5 140.929 244.921 140.38 244.466 139.685C244.011 138.982 243.784 138.21 243.784 137.369C243.784 136.468 244.02 135.649 244.492 134.911C244.972 134.165 245.611 133.573 246.409 133.135C247.215 132.689 248.103 132.466 249.073 132.466C250.042 132.466 250.926 132.689 251.724 133.135C252.53 133.573 253.169 134.165 253.641 134.911C254.122 135.649 254.362 136.468 254.362 137.369C254.362 138.21 254.134 138.982 253.68 139.685C253.234 140.38 252.655 140.929 251.942 141.333C252.809 141.77 253.504 142.388 254.027 143.186C254.559 143.975 254.825 144.85 254.825 145.811C254.825 146.789 254.563 147.685 254.04 148.5C253.525 149.307 252.835 149.95 251.968 150.431C251.102 150.911 250.137 151.151 249.073 151.151ZM249.073 149.35C249.785 149.35 250.428 149.191 251.003 148.874C251.578 148.556 252.037 148.132 252.38 147.6C252.723 147.059 252.895 146.463 252.895 145.811C252.895 145.159 252.723 144.567 252.38 144.035C252.037 143.503 251.578 143.078 251.003 142.761C250.428 142.444 249.785 142.285 249.073 142.285C248.378 142.285 247.739 142.444 247.155 142.761C246.581 143.078 246.117 143.503 245.766 144.035C245.422 144.567 245.251 145.159 245.251 145.811C245.251 146.463 245.422 147.059 245.766 147.6C246.117 148.132 246.581 148.556 247.155 148.874C247.739 149.191 248.378 149.35 249.073 149.35ZM249.073 140.483C249.699 140.483 250.265 140.346 250.771 140.071C251.278 139.788 251.681 139.411 251.981 138.939C252.29 138.467 252.444 137.944 252.444 137.369C252.444 136.794 252.29 136.275 251.981 135.812C251.681 135.34 251.278 134.967 250.771 134.692C250.265 134.409 249.699 134.268 249.073 134.268C248.455 134.268 247.889 134.409 247.374 134.692C246.868 134.967 246.46 135.34 246.152 135.812C245.851 136.275 245.701 136.794 245.701 137.369C245.701 137.944 245.851 138.467 246.152 138.939C246.46 139.411 246.868 139.788 247.374 140.071C247.889 140.346 248.455 140.483 249.073 140.483ZM257.846 150.817L268.244 132.801H270.328L259.931 150.817H257.846ZM259.956 139.84C259.39 139.84 258.875 139.703 258.412 139.428C257.949 139.153 257.576 138.785 257.292 138.321C257.018 137.849 256.881 137.33 256.881 136.764C256.881 136.181 257.018 135.658 257.292 135.194C257.576 134.731 257.949 134.362 258.412 134.088C258.884 133.813 259.399 133.676 259.956 133.676C260.522 133.676 261.037 133.817 261.5 134.1C261.964 134.375 262.333 134.744 262.607 135.207C262.89 135.67 263.032 136.189 263.032 136.764C263.032 137.339 262.89 137.858 262.607 138.321C262.333 138.785 261.959 139.153 261.488 139.428C261.024 139.703 260.514 139.84 259.956 139.84ZM259.956 138.463C260.437 138.463 260.84 138.3 261.166 137.974C261.492 137.639 261.655 137.236 261.655 136.764C261.655 136.284 261.492 135.881 261.166 135.555C260.84 135.22 260.437 135.053 259.956 135.053C259.484 135.053 259.081 135.22 258.747 135.555C258.421 135.881 258.258 136.284 258.258 136.764C258.258 137.236 258.421 137.639 258.747 137.974C259.081 138.3 259.484 138.463 259.956 138.463ZM268.244 149.955C267.677 149.955 267.158 149.813 266.687 149.53C266.223 149.238 265.85 148.861 265.567 148.397C265.292 147.926 265.155 147.415 265.155 146.866C265.155 146.291 265.297 145.772 265.58 145.309C265.863 144.837 266.236 144.464 266.699 144.189C267.171 143.915 267.686 143.778 268.244 143.778C268.818 143.778 269.337 143.919 269.801 144.202C270.264 144.485 270.633 144.863 270.907 145.335C271.182 145.798 271.319 146.308 271.319 146.866C271.319 147.432 271.182 147.951 270.907 148.423C270.633 148.886 270.26 149.26 269.788 149.543C269.325 149.817 268.81 149.955 268.244 149.955ZM268.244 148.578C268.707 148.578 269.106 148.41 269.44 148.076C269.775 147.741 269.942 147.338 269.942 146.866C269.942 146.394 269.775 145.991 269.44 145.656C269.106 145.322 268.707 145.155 268.244 145.155C267.772 145.155 267.364 145.322 267.021 145.656C266.687 145.991 266.519 146.394 266.519 146.866C266.519 147.338 266.687 147.741 267.021 148.076C267.364 148.41 267.772 148.578 268.244 148.578Z" fill="white"/>
<path fill-rule="evenodd" clip-rule="evenodd" d="M303.654 108.611L306.44 113.437C306.727 113.935 306.727 114.548 306.44 115.045L303.654 119.871C303.367 120.369 302.836 120.675 302.261 120.675H296.689C296.114 120.675 295.583 120.369 295.296 119.871L292.51 115.045C292.223 114.548 292.223 113.935 292.51 113.437L295.296 108.611C295.583 108.113 296.115 107.807 296.689 107.807H302.262C302.836 107.807 303.367 108.113 303.654 108.611V108.611Z" stroke="white" stroke-width="0.965148" stroke-linecap="round" stroke-linejoin="round"/>
<path d="M297.867 111.024L301.084 117.458" stroke="white" stroke-width="0.965148" stroke-linecap="round" stroke-linejoin="round"/>
</g>
<defs>
<filter id="filter0_b_885_3466" x="166.278" y="58.9059" width="187.649" height="138.975" filterUnits="userSpaceOnUse" color-interpolation-filters="sRGB">
<feFlood flood-opacity="0" result="BackgroundImageFix"/>
<feGaussianBlur in="BackgroundImageFix" stdDeviation="16.0858"/>
<feComposite in2="SourceAlpha" operator="in" result="effect1_backgroundBlur_885_3466"/>
<feBlend mode="normal" in="SourceGraphic" in2="effect1_backgroundBlur_885_3466" result="shape"/>
</filter>
<linearGradient id="paint0_linear_885_3466" x1="206.532" y1="16.5806" x2="206.532" y2="145.576" gradientUnits="userSpaceOnUse">
<stop stop-color="#F6F6F6" stop-opacity="0.31"/>
<stop offset="1" stop-color="#F6F6F6"/>
</linearGradient>
</defs>
</svg>
