<svg width="1310" height="343" viewBox="0 0 1310 343" fill="none" xmlns="http://www.w3.org/2000/svg">
<path d="M1214.46 340.557C1201.83 339.758 1189.52 337.199 1177.52 332.882C1165.53 328.565 1154.98 322.728 1145.86 315.373C1136.91 307.858 1130.19 299.063 1125.72 288.989L1168.17 270.761C1170.25 275.078 1173.85 279.315 1178.96 283.473C1184.24 287.63 1190.4 291.068 1197.43 293.786C1204.47 296.345 1211.82 297.624 1219.5 297.624C1227.01 297.624 1233.97 296.585 1240.36 294.506C1246.92 292.267 1252.28 288.909 1256.43 284.432C1260.59 279.955 1262.67 274.598 1262.67 268.362C1262.67 261.327 1260.27 255.89 1255.47 252.053C1250.84 248.055 1245 245.017 1237.97 242.938C1230.93 240.86 1223.89 238.861 1216.86 236.942C1201.19 233.424 1186.8 228.627 1173.69 222.551C1160.73 216.315 1150.42 208.4 1142.75 198.806C1135.07 189.052 1131.23 177.139 1131.23 163.068C1131.23 147.718 1135.39 134.446 1143.7 123.253C1152.02 111.9 1162.89 103.186 1176.32 97.1094C1189.92 91.0332 1204.39 87.9951 1219.74 87.9951C1238.92 87.9951 1256.51 92.0726 1272.5 100.227C1288.49 108.382 1300.73 119.575 1309.2 133.806L1269.63 157.312C1267.23 152.515 1263.63 148.197 1258.83 144.36C1254.04 140.522 1248.6 137.484 1242.52 135.246C1236.45 132.847 1230.13 131.488 1223.57 131.168C1215.42 130.848 1207.82 131.808 1200.79 134.046C1193.91 136.125 1188.4 139.483 1184.24 144.12C1180.08 148.757 1178 154.673 1178 161.869C1178 168.905 1180.48 174.181 1185.44 177.699C1190.4 181.057 1196.63 183.775 1204.15 185.854C1211.82 187.933 1219.66 190.251 1227.65 192.81C1241.88 197.287 1255.23 202.803 1267.71 209.359C1280.18 215.755 1290.25 223.67 1297.93 233.104C1305.6 242.538 1309.28 254.051 1308.96 267.643C1308.96 282.673 1304.4 295.865 1295.29 307.218C1286.34 318.571 1274.66 327.206 1260.27 333.122C1245.88 339.038 1230.61 341.517 1214.46 340.557Z" fill="#FE4A23"/>
<path d="M1006.88 342.236C984.811 342.236 964.664 336.56 946.435 325.207C928.367 313.854 913.896 298.663 903.023 279.635C892.309 260.447 886.953 239.26 886.953 216.075C886.953 198.486 890.071 182.096 896.307 166.906C902.543 151.555 911.098 138.124 921.971 126.611C933.004 114.938 945.796 105.824 960.347 99.2679C974.898 92.712 990.408 89.4341 1006.88 89.4341C1028.94 89.4341 1049.01 95.1105 1067.08 106.463C1085.31 117.816 1099.78 133.087 1110.49 152.275C1121.37 171.463 1126.8 192.729 1126.8 216.075C1126.8 233.504 1123.68 249.814 1117.45 265.004C1111.21 280.195 1102.58 293.626 1091.54 305.299C1080.67 316.812 1067.96 325.846 1053.41 332.402C1039.02 338.958 1023.51 342.236 1006.88 342.236ZM1006.88 292.347C1020.15 292.347 1032.06 288.829 1042.62 281.794C1053.17 274.758 1061.48 265.484 1067.56 253.971C1073.8 242.298 1076.91 229.666 1076.91 216.075C1076.91 202.164 1073.72 189.372 1067.32 177.699C1061.08 166.026 1052.69 156.752 1042.14 149.876C1031.58 142.841 1019.83 139.323 1006.88 139.323C993.766 139.323 981.853 142.841 971.14 149.876C960.587 156.912 952.192 166.266 945.956 177.939C939.88 189.611 936.841 202.323 936.841 216.075C936.841 230.306 940.039 243.178 946.435 254.691C952.831 266.204 961.306 275.398 971.86 282.273C982.573 288.989 994.246 292.347 1006.88 292.347Z" fill="#FE4A23"/>
<path d="M503.717 336V96.1499H553.606V121.574C561.921 111.66 572.075 103.825 584.067 98.0687C596.219 92.3123 609.331 89.4341 623.402 89.4341C640.512 89.4341 656.262 93.5915 670.653 101.906C685.044 110.061 696.477 120.934 704.951 134.526C713.426 120.934 724.699 110.061 738.77 101.906C753.001 93.5915 768.672 89.4341 785.781 89.4341C803.53 89.4341 819.68 93.7514 834.231 102.386C848.782 111.021 860.374 122.613 869.009 137.164C877.643 151.715 881.961 167.865 881.961 185.614V336H832.072V198.326C832.072 187.773 829.514 178.099 824.397 169.304C819.28 160.51 812.404 153.394 803.77 147.957C795.135 142.521 785.541 139.803 774.988 139.803C764.434 139.803 754.84 142.361 746.206 147.478C737.571 152.595 730.695 159.55 725.579 168.345C720.462 177.139 717.903 187.133 717.903 198.326V336H668.015V198.326C668.015 187.133 665.456 177.139 660.339 168.345C655.223 159.55 648.267 152.595 639.472 147.478C630.838 142.361 621.244 139.803 610.69 139.803C600.297 139.803 590.703 142.521 581.908 147.957C573.274 153.394 566.398 160.51 561.281 169.304C556.165 178.099 553.606 187.773 553.606 198.326V336H503.717Z" fill="#FE4A23"/>
<path d="M429.952 96.1499H479.841V336H429.712L427.794 301.222C420.758 313.534 411.244 323.448 399.251 330.963C387.259 338.478 373.108 342.236 356.798 342.236C339.209 342.236 322.659 338.958 307.149 332.402C291.639 325.686 277.967 316.412 266.135 304.58C254.462 292.747 245.348 279.155 238.792 263.805C232.236 248.295 228.958 231.665 228.958 213.916C228.958 196.807 232.156 180.737 238.552 165.706C244.948 150.516 253.822 137.244 265.175 125.891C276.528 114.538 289.64 105.664 304.511 99.2679C319.541 92.712 335.611 89.4341 352.721 89.4341C370.15 89.4341 385.5 93.4316 398.772 101.427C412.203 109.262 423.316 119.335 432.111 131.648L429.952 96.1499ZM355.599 294.026C369.67 294.026 381.982 290.588 392.536 283.713C403.089 276.677 411.244 267.243 417 255.41C422.917 243.578 425.875 230.466 425.875 216.075C425.875 201.524 422.917 188.332 417 176.5C411.084 164.667 402.849 155.313 392.296 148.437C381.902 141.402 369.67 137.884 355.599 137.884C341.687 137.884 328.975 141.402 317.463 148.437C305.95 155.473 296.836 164.907 290.12 176.739C283.404 188.572 280.046 201.684 280.046 216.075C280.046 230.626 283.484 243.818 290.36 255.65C297.395 267.323 306.589 276.677 317.942 283.713C329.455 290.588 342.007 294.026 355.599 294.026Z" fill="#FE4A23"/>
<path d="M0.782227 336V0.209961H124.305C142.534 0.209961 158.923 4.68716 173.474 13.6416C188.025 22.596 199.538 34.6684 208.013 49.8589C216.647 64.8895 220.965 81.679 220.965 100.227C220.965 115.898 218.006 130.209 212.09 143.161C206.334 156.112 198.179 167.146 187.625 176.26C177.232 185.374 165.319 191.93 151.888 195.928L232.957 336H175.153L96.4824 200.485H50.671V336H0.782227ZM50.671 150.596H119.028C128.622 150.596 137.337 148.197 145.172 143.4C153.167 138.603 159.483 132.207 164.12 124.212C168.757 116.217 171.076 107.183 171.076 97.1094C171.076 87.0357 168.757 78.0013 164.12 70.0063C159.483 61.8514 153.167 55.4554 145.172 50.8183C137.337 46.0213 128.622 43.6228 119.028 43.6228H50.671V150.596Z" fill="#FE4A23"/>
</svg>
